# xmcd CD database file
#
# Track frame offsets:
#	150
#	12030
#	24360
#	35807
#	49082
#	62440
#	74877
#	87785
#	96697
#	105192
#	118975
#	128752
#	138507
#	148772
#	161400
#
# Disc length: 2324 seconds
#
# Revision: 0
# Processed by: cddbd v1.4PL0 Copyright (c) Steve Scherf et al.
# Submitted via: CdAid 2001.05.15.01
#
DISCID=d309120f
DTITLE=Buttercup - Gold
DYEAR=1900
DGENRE=
TTITLE0=Heavy Feet
TTITLE1=Old World
TTITLE2=Hollywood Bowl
TTITLE3=Tae Kwon Do
TTITLE4=Third Degree
TTITLE5=So Relaxed
TTITLE6=The Can
TTITLE7=Horn of Plenty
TTITLE8=Cottonwood
TTITLE9=Time
TTITLE10=Pining
TTITLE11=Breakfast
TTITLE12=Got a Car
TTITLE13=Little One
TTITLE14=That Shirt
EXTD=
EXTT0=
EXTT1=
EXTT2=
EXTT3=
EXTT4=
EXTT5=
EXTT6=
EXTT7=
EXTT8=
EXTT9=
EXTT10=
EXTT11=
EXTT12=
EXTT13=
EXTT14=
PLAYORDER=
